<svg xmlns="http://www.w3.org/2000/svg" xmlns:xlink="http://www.w3.org/1999/xlink" viewBox="0 0 665 519.82"><defs><style>.cls-1{font-size:131.41px;fill:#9cf;font-family:Gotham-Bold, Gotham;font-weight:700;letter-spacing:-0.02em;}.cls-2{letter-spacing:-0.01em;}.cls-3{letter-spacing:-0.01em;}.cls-4{letter-spacing:-0.01em;}.cls-5{letter-spacing:-0.01em;}.cls-6{letter-spacing:-0.02em;}.cls-7{letter-spacing:-0.01em;}.cls-8{letter-spacing:0em;}.cls-9{fill:url(#linear-gradient);}</style><linearGradient id="linear-gradient" x1="191.99" y1="-30.87" x2="634.3" y2="731.65" gradientUnits="userSpaceOnUse"><stop offset="0" stop-color="#99f"/><stop offset="0.13" stop-color="#9397fb"/><stop offset="0.3" stop-color="#8392f0"/><stop offset="0.49" stop-color="#6889df"/><stop offset="0.7" stop-color="#437cc6"/><stop offset="0.92" stop-color="#146da6"/><stop offset="1" stop-color="#069"/></linearGradient></defs><g id="Layer_2" data-name="Layer 2"><g id="Layer_1-2" data-name="Layer 1"><text class="cls-1" transform="translate(0 497.08)">E<tspan class="cls-2" x="85.58" y="0">d</tspan><tspan class="cls-3" x="173.18" y="0">u</tspan><tspan class="cls-4" x="253.97" y="0">C</tspan><tspan class="cls-5" x="349.8" y="0">a</tspan><tspan class="cls-6" x="426.03" y="0">l</tspan><tspan class="cls-7" x="463.73" y="0">m</tspan><tspan class="cls-8" x="587.21" y="0">a</tspan></text><polygon class="cls-9" points="333.6 152.44 347.25 144.55 373.59 129.35 404.99 111.22 405.79 110.75 405.79 61.97 347.25 28.17 298.46 0 298.46 49.7 347.25 77.88 362.75 86.82 347.25 95.77 331.34 104.95 298.46 85.98 298.46 123.94 291.35 128.04 259.43 146.47 259.43 361.13 298.46 338.6 347.25 310.43 405.79 276.63 405.79 227.84 347.25 261.65 298.46 289.81 298.46 250.78 347.25 222.61 347.25 183.59 298.46 211.75 298.46 172.72 333.6 152.44"/></g></g></svg>