<svg width="254" height="76" viewBox="0 0 254 76" fill="none" xmlns="http://www.w3.org/2000/svg">
<path d="M170.664 56.7084C170.811 56.1674 170.965 55.6289 171.101 55.0855C171.985 51.5965 172.921 48.1175 174.081 44.7005C175.375 40.8914 176.537 37.0426 178.024 33.2931C179.474 29.6379 180.615 25.8908 182.059 22.2381C183.108 19.5829 183.975 16.8781 184.985 14.213C185.103 13.9003 185.261 13.8184 185.599 13.8184C189.068 13.8284 192.536 13.8383 196.004 13.811C196.514 13.806 196.632 13.9797 196.654 14.3743C196.713 15.4537 196.788 16.5332 196.858 17.6101C197.045 20.506 197.233 23.4019 197.419 26.3003C197.529 28.0299 197.631 29.7595 197.738 31.4891C197.835 33.0276 197.845 34.5736 198.047 36.0997C198.377 38.596 198.431 41.1048 198.605 43.6062C198.785 46.1621 198.935 48.7205 199.099 51.2764C199.257 53.7306 199.41 56.1823 199.577 58.6365C199.719 60.778 199.875 62.9195 200.025 65.0635C200.036 65.2124 200.025 65.3613 200.041 65.5077C200.063 65.7162 199.969 65.7906 199.743 65.8105C198.5 65.9172 197.257 66.0437 196.015 66.1529C194.643 66.272 193.269 66.3762 191.897 66.4953C191.296 66.5475 191.298 66.5599 191.266 65.9966C191.102 63.0982 190.941 60.1998 190.778 57.3039C190.651 55.1004 190.525 52.8968 190.399 50.6933C190.335 49.5543 190.343 48.4078 190.187 47.2812C189.846 44.7997 189.873 42.3009 189.725 39.812C189.602 37.7275 189.535 35.6406 189.43 33.5537C189.261 30.164 189.226 26.7693 189.239 23.3771C189.239 23.3622 189.242 23.3473 189.239 23.3324C189.202 23.2034 189.339 22.9776 189.124 22.9602C188.928 22.9453 188.952 23.186 188.917 23.3151C188.246 25.7395 187.548 28.1564 186.759 30.5486C185.777 33.5313 184.74 36.4992 183.72 39.472C183.275 40.7698 182.853 42.0776 182.343 43.3555C180.888 47.0083 179.766 50.7628 178.338 54.4205C176.921 58.0533 175.74 61.7582 174.363 65.401C174.119 66.0512 173.829 66.6914 173.595 67.349C173.515 67.5723 173.364 67.5922 173.16 67.5996C171.59 67.6567 170.02 67.7162 168.452 67.7783C168.068 67.7932 167.684 67.8105 167.3 67.8354C166.466 67.8875 166.334 67.818 166.079 67.081C165.805 66.2919 165.55 65.4953 165.287 64.7037C164.334 61.8302 163.454 58.9343 162.412 56.088C160.995 52.2219 159.865 48.2738 158.439 44.4126C156.893 40.2214 155.736 35.9334 154.41 31.6876C153.554 28.9456 152.902 26.1613 152.249 23.3771C152.241 23.3473 152.241 23.3151 152.223 23.2927C152.142 23.1786 152.241 22.9255 152.019 22.9503C151.809 22.9751 151.911 23.196 151.906 23.33C151.825 25.7742 151.764 28.216 151.672 30.6603C151.594 32.7174 151.495 34.7746 151.385 36.8292C151.2 40.2437 151.001 43.6607 150.805 47.0753C150.682 49.249 150.652 51.4327 150.4 53.5916C150.097 56.1649 150.067 58.7482 149.874 61.3239C149.713 63.4655 149.605 65.6095 149.493 67.7535C149.476 68.081 149.299 68.1033 149.031 68.1009C147.235 68.076 145.439 68.0537 143.641 68.0339C142.903 68.0264 142.164 68.0091 141.426 68.0215C141.099 68.0264 140.967 67.952 140.991 67.6219C141.115 66.0115 141.211 64.401 141.327 62.7905C141.437 61.2842 141.56 59.778 141.673 58.2717C141.861 55.7753 142.009 53.2765 142.24 50.7851C142.468 48.3284 142.677 45.8742 142.849 43.4151C143.074 40.1941 143.343 36.9781 143.579 33.7571C143.705 32.0424 143.794 30.3277 143.917 28.613C144.094 26.1316 144.29 23.6525 144.473 21.1711C144.642 18.8807 144.808 16.5927 144.964 14.3023C144.988 13.9425 145.125 13.8135 145.549 13.816C149.001 13.8358 152.453 13.8358 155.905 13.816C156.311 13.8135 156.458 13.9475 156.568 14.2775C157.038 15.692 157.481 17.1188 158.034 18.506C159.422 21.99 160.466 25.5782 161.779 29.0845C163.035 32.437 164.2 35.8168 165.322 39.209C165.588 40.0154 165.789 40.8418 166.087 41.6383C167.3 44.8841 168.122 48.2316 169.059 51.5469C169.456 52.9489 169.794 54.3659 170.175 55.7729C170.261 56.0905 170.409 56.3957 170.527 56.7059C170.567 56.7034 170.616 56.7059 170.664 56.7084Z" fill="white"/>
<path d="M29.1515 69.3615C25.1599 69.4087 21.4018 68.8925 17.7807 67.6642C15.4077 66.8577 13.2066 65.7559 11.1799 64.3341C9.60689 63.2298 8.29158 61.9196 7.01921 60.5399C5.28782 58.6614 4.17919 56.4826 3.14036 54.2419C1.73377 51.207 1.13785 48.0183 0.912369 44.7601C0.579513 39.9038 0.898948 35.0922 2.67329 30.4692C3.62622 27.9902 4.80732 25.5757 6.55482 23.4665C7.75203 22.0247 9.01903 20.6202 10.5303 19.4415C14.0602 16.6895 18.092 14.8582 22.591 13.8904C25.9142 13.1757 29.283 13.0045 32.676 13.1435C35.371 13.2551 38.0393 13.5753 40.6323 14.2949C41.4296 14.5157 42.2 14.8135 42.9838 15.0716C43.2576 15.1609 43.3381 15.29 43.2549 15.5729C42.6402 17.6374 41.9262 19.6747 41.4027 21.7617C41.341 22.0073 41.2551 22.0371 41.0162 21.9379C39.1801 21.1686 37.2527 20.6748 35.2663 20.3845C32.5579 19.9899 29.8494 19.9204 27.1275 20.305C24.1801 20.7195 21.4716 21.6451 18.994 23.2059C17.5122 24.1389 16.3016 25.2928 15.1822 26.5584C12.7127 29.355 11.6255 32.6579 10.9088 36.1295C10.5061 38.0725 10.3692 40.0205 10.388 41.9808C10.3988 43.162 10.4337 44.3531 10.6565 45.5219C11.29 48.8719 12.1114 52.1773 14.24 55.0334C15.4131 56.6092 16.7955 58.041 18.5215 59.1378C21.2005 60.8376 24.172 61.8278 27.404 62.1628C31.1593 62.5523 34.8556 62.2843 38.509 61.3985C39.3975 61.1826 40.2565 60.9046 41.094 60.5696C41.4054 60.4456 41.5047 60.4927 41.5691 60.788C41.8456 62.0337 42.1409 63.2769 42.4281 64.5226C42.5999 65.2696 42.8925 65.9867 43.0428 66.7411C43.0992 67.024 43.0375 67.1381 42.769 67.2399C40.0606 68.2622 37.2313 68.7983 34.3349 69.0911C32.5686 69.2747 30.7943 69.3963 29.1515 69.3615Z" fill="white"/>
<path d="M71.0242 20.1586C69.9666 21.9527 69.2203 23.8114 68.356 25.6229C67.8191 26.747 67.352 27.9033 66.7669 29.0051C65.3334 31.7025 64.2221 34.5314 62.829 37.2412C61.3982 40.0204 60.2279 42.9064 58.7917 45.6807C57.4227 48.3235 56.3061 51.068 54.9451 53.7108C53.4714 56.5695 52.2608 59.5348 50.7898 62.391C49.8825 64.1554 49.096 65.9644 48.2236 67.7386C48.186 67.818 48.1403 67.8925 48.0867 67.9868C47.9846 67.8428 48.0679 67.7411 48.1028 67.6344C48.8705 65.2968 49.5711 62.9394 50.422 60.6267C51.893 56.6365 53.0419 52.5544 54.4888 48.5617C55.89 44.6906 57.0174 40.7425 58.424 36.8764C59.852 32.9507 60.9875 28.9431 62.4209 25.0223C63.7228 21.4639 64.8019 17.8434 66.0287 14.2651C66.1441 13.9251 66.2891 13.8085 66.6863 13.811C70.1062 13.8284 73.526 13.8259 76.9431 13.8135C77.3163 13.811 77.4827 13.9202 77.582 14.2452C77.8397 15.1014 78.0893 15.9599 78.4115 16.7962C79.9039 20.6872 80.9884 24.6948 82.4057 28.6056C83.8419 32.5611 84.9854 36.5985 86.4215 40.549C87.8388 44.4474 88.9662 48.4277 90.3916 52.3187C91.7821 56.1153 92.9256 59.9815 94.2463 63.798C94.3564 64.1181 94.5067 64.4258 94.6489 64.7335C94.7858 65.0288 94.6946 65.1231 94.3537 65.0834C93.4813 64.9767 92.6035 64.8899 91.7311 64.7832C89.6668 64.5301 87.6053 64.2645 85.541 64.0189C84.6847 63.9171 84.6794 63.9345 84.427 63.1652C83.8526 61.4084 83.3372 59.6341 82.701 57.8946C81.2166 53.8299 80.108 49.661 78.7175 45.5715C77.2438 41.2388 76.1217 36.8168 74.7527 32.4618C73.5985 28.7967 72.7046 25.0769 71.7114 21.377C71.6684 21.2207 71.6389 21.052 71.5557 20.913C71.4081 20.6673 71.2255 20.4415 71.0242 20.1586Z" fill="white"/>
<path d="M253.065 67.885C252.614 66.9197 252.195 66.0289 251.779 65.1355C251.253 64.0065 250.783 62.8501 250.192 61.7508C248.732 59.0311 247.621 56.1699 246.209 53.4353C244.765 50.6437 243.597 47.7428 242.15 44.9561C240.73 42.219 239.581 39.3728 238.172 36.6357C236.765 33.9085 235.619 31.0796 234.218 28.355C232.903 25.8015 231.773 23.1786 230.535 20.5954C230.387 20.2852 230.283 20.1661 229.99 20.4887C229.767 20.7343 229.598 20.9825 229.52 21.2951C228.624 24.9007 227.69 28.4989 226.64 32.0697C225.263 36.7498 223.905 41.4349 222.396 46.0777C220.992 50.398 219.704 54.748 218.209 59.041C217.68 60.5572 217.183 62.0833 216.654 63.5995C216.582 63.8079 216.485 63.9072 216.233 63.9395C213.882 64.2223 211.535 64.5201 209.187 64.8105C208.473 64.8998 207.756 64.9693 207.042 65.0636C206.69 65.1107 206.545 65.0859 206.677 64.6889C207.544 62.1007 208.387 59.5075 209.238 56.9144C209.447 56.2766 209.63 55.6314 209.871 55.0036C211.38 51.0556 212.475 46.9884 213.922 43.0255C215.342 39.1296 216.467 35.1468 217.887 31.2533C219.333 27.2854 220.488 23.2381 221.929 19.2727C222.544 17.5779 223.083 15.8632 223.671 14.1633C223.768 13.8805 223.918 13.811 224.219 13.8135C227.671 13.8234 231.123 13.8259 234.575 13.811C234.97 13.8085 235.098 13.9623 235.195 14.2651C236.019 16.7888 236.798 19.3248 237.7 21.8237C238.717 24.6427 239.605 27.4964 240.564 30.3327C240.966 31.5189 241.294 32.7298 241.748 33.8986C242.931 36.9483 243.814 40.0849 244.877 43.1694C245.2 44.1 245.455 45.0529 245.806 45.971C247.234 49.6933 248.268 53.5321 249.631 57.2717C250.855 60.6366 251.9 64.0486 253.049 67.4334C253.075 67.5475 253.151 67.6518 253.065 67.885Z" fill="white"/>
<path d="M101.964 39.8219C101.964 31.3402 101.966 22.8585 101.953 14.3768C101.953 13.9351 102.058 13.8035 102.557 13.8085C105.238 13.8333 107.92 13.8333 110.599 13.8085C111.085 13.8035 111.211 13.9152 111.211 14.3693C111.198 29.8339 111.2 45.301 111.2 60.7656C111.2 60.9145 111.211 61.0634 111.198 61.2098C111.176 61.4555 111.276 61.5721 111.552 61.5473C111.678 61.5374 111.81 61.5448 111.936 61.5448C119.24 61.5448 126.544 61.5498 133.851 61.5349C134.337 61.5349 134.468 61.6441 134.46 62.0957C134.428 63.86 134.436 65.6244 134.457 67.3887C134.463 67.7535 134.334 67.8428 133.966 67.8255C132.396 67.756 130.826 67.7188 129.258 67.6468C126.552 67.5202 123.849 67.3763 121.146 67.2349C119.369 67.143 117.592 67.0587 115.817 66.9371C113.23 66.7584 110.642 66.5574 108.057 66.3539C106.205 66.2075 104.358 66.0239 102.503 65.8973C102.055 65.8676 101.956 65.741 101.956 65.3489C101.966 56.8424 101.964 48.3334 101.964 39.8219Z" fill="white"/>
<path d="M234.268 64.473C232.94 64.8998 231.619 65.344 230.28 65.746C227.888 66.4631 225.475 67.1207 223.043 67.7163C219.295 68.6344 215.521 69.4484 211.723 70.1655C207.672 70.9298 203.603 71.5899 199.52 72.1755C196.607 72.5924 193.687 72.9647 190.761 73.2724C187.929 73.5701 185.094 73.8729 182.257 74.1309C180.088 74.327 177.914 74.4535 175.739 74.6124C172.958 74.8158 170.175 74.9474 167.389 75.0739C164.954 75.1831 162.519 75.2625 160.084 75.3419C155.755 75.4834 151.425 75.5305 147.092 75.4809C144.239 75.4486 141.385 75.3717 138.532 75.2848C136.513 75.2253 134.495 75.1434 132.479 75.0317C128.995 74.8407 125.505 74.6694 122.029 74.3568C119.828 74.1583 117.624 73.9994 115.423 73.7935C112.395 73.5106 109.372 73.1731 106.358 72.7909C102.914 72.3567 99.4805 71.8678 96.058 71.312C93.0757 70.8281 90.1041 70.297 87.146 69.704C82.2579 68.7287 77.4127 67.6046 72.6372 66.2324C70.5462 65.6318 68.4631 65.0115 66.2915 64.2224C94.1253 69.2945 122.131 71.2872 150.316 71.3045C178.515 71.3219 206.534 69.3466 234.255 64.3514C234.26 64.3936 234.266 64.4333 234.268 64.473Z" fill="white"/>
<path d="M126.982 16.6448C127.825 16.1336 128.595 15.5257 129.537 15.1535C130.823 14.6448 132.138 14.5356 133.486 14.8532C134.53 15.0989 135.529 15.4562 136.46 16.0319C136.216 16.2652 135.888 16.3148 135.62 16.4562C134.587 16.9972 133.596 17.5903 132.659 18.2652C131.924 18.7938 131.135 19.233 130.176 19.372C129.041 19.5358 128.053 19.2777 127.164 18.6251C127.113 18.5878 127.068 18.5481 127.017 18.5109C126.123 17.8211 126.131 17.8235 125.79 18.8807C125.234 20.6053 125.065 22.3647 125.197 24.1538C125.202 24.2431 125.216 24.33 125.237 24.4168C125.256 24.4987 125.288 24.5757 125.318 24.665C129.272 20.6822 132.6 21.7914 135.231 22.8932C134.345 23.32 133.534 23.7915 132.828 24.3995C132.289 24.8635 131.755 25.3375 131.183 25.7668C130.037 26.6328 128.756 27.0869 127.258 26.7147C126.668 26.5683 126.139 26.2879 125.573 25.9181C125.637 26.5708 125.809 27.1341 126.048 27.6651C126.619 28.9307 127.151 30.2161 127.86 31.4245C128.042 31.7347 128.056 31.9432 127.728 32.169C127.449 32.3625 127.226 32.7844 126.96 32.7993C126.606 32.8167 126.617 32.3129 126.429 32.0598C125.806 31.2136 125.53 30.2334 125.218 29.2756C124.566 27.278 124.247 25.2308 124.34 23.1389C124.357 22.7567 124.298 22.6227 123.825 22.7145C122.703 22.9304 121.592 22.923 120.574 22.32C119.995 21.9751 119.544 21.5185 119.23 20.9552C118.768 20.1288 118.36 19.2802 118 18.4116C117.667 17.6101 117.222 16.8607 116.693 16.0592C118.518 16.1237 120.193 16.3744 121.667 17.3372C123.159 18.3124 123.836 19.7665 124.421 21.2951C124.617 20.4936 124.751 19.6995 124.985 18.9253C125.283 17.9377 125.709 16.9972 126.171 16.0666C126.3 15.8086 126.738 15.6125 126.571 15.3296C126.456 15.1311 126.061 15.0616 125.785 14.9525C123.847 14.1832 123.02 12.5355 123.519 10.4734C123.79 9.34928 124.174 8.24501 124.281 7.08864C124.308 6.79334 124.324 6.49805 124.34 6.20275C124.351 6.0092 124.437 5.95957 124.609 6.08116C124.735 6.17049 124.867 6.25983 124.982 6.36157C125.908 7.15068 126.907 7.87528 127.46 8.97705C128.152 10.3543 128.09 11.7613 127.742 13.1931C127.693 13.3916 127.645 13.5901 127.672 13.8259C127.921 13.5107 128.171 13.1956 128.418 12.8804C129.309 11.734 130.388 10.7414 131.492 9.77609C131.709 9.58502 131.84 9.3865 131.873 9.09368C132.028 7.72391 132.67 6.62461 134.087 6.04394C134.871 5.72383 135.719 5.60968 136.57 5.58238C138.031 5.53524 139.483 5.46327 140.938 5.03149C140.903 5.39131 140.728 5.67172 140.599 5.95709C140.181 6.8802 139.668 7.75368 138.873 8.4485C137.853 9.33935 136.624 9.84805 135.233 10.0118C134.326 10.1185 133.416 10.1632 132.501 10.1657C132.302 10.1657 132.133 10.1905 131.977 10.3295C129.967 12.0988 128.195 14.0318 126.982 16.3619C126.947 16.4289 126.923 16.4984 126.893 16.5679C126.832 16.6275 126.799 16.6945 126.834 16.7764C126.818 16.7863 126.802 16.7962 126.786 16.8036C126.794 16.8036 126.807 16.8061 126.813 16.8012C126.821 16.7912 126.823 16.7788 126.829 16.7689C126.88 16.7292 126.931 16.687 126.982 16.6448Z" fill="white"/>
<path d="M235.12 5.70398C235.297 8.55272 232.285 10.9945 229.354 10.9151C226.24 10.8307 223.663 8.71402 223.663 5.67172C223.663 2.80561 226.216 0.53754 229.391 0.500318C232.344 0.468059 235.289 2.89495 235.12 5.70398Z" fill="white"/>
<path d="M77.5255 5.74431C77.5228 8.65509 75.0372 10.8735 71.8348 10.9207C68.6243 10.9678 66.0474 8.30768 66.0474 5.72694C66.0474 3.11891 68.5706 0.431466 71.9019 0.510873C75.0908 0.585317 77.5792 2.81865 77.5255 5.74431Z" fill="white"/>
<path d="M253.204 68.034C253.193 68.0464 253.183 68.0563 253.172 68.0687C253.161 68.0439 253.148 68.0166 253.142 67.9918C253.14 67.9819 253.161 67.9695 253.172 67.9595C253.183 67.9843 253.193 68.0092 253.204 68.034Z" fill="black"/>
<path d="M126.982 16.6448C126.931 16.687 126.88 16.7292 126.829 16.7689L126.837 16.7763C126.802 16.6945 126.834 16.6275 126.896 16.5679C126.923 16.5927 126.952 16.62 126.982 16.6448Z" fill="black"/>
<path d="M126.829 16.7689C126.824 16.779 126.821 16.7942 126.813 16.8018C126.807 16.8068 126.797 16.8043 126.786 16.8043C126.802 16.7942 126.818 16.7841 126.835 16.7765C126.835 16.7765 126.829 16.7689 126.829 16.7689Z" fill="black"/>
</svg>
