<svg xmlns="http://www.w3.org/2000/svg" xmlns:xlink="http://www.w3.org/1999/xlink" viewBox="0 0 878.28 362.04"><defs><style>.cls-1{fill:none;stroke:#000;stroke-miterlimit:10;}.cls-2{fill:url(#linear-gradient);}.cls-3{font-size:131.41px;fill:#9cf;font-family:Gotham-Bold, Gotham;font-weight:700;letter-spacing:-0.02em;}.cls-4{letter-spacing:-0.01em;}.cls-5{letter-spacing:-0.01em;}.cls-6{letter-spacing:-0.01em;}.cls-7{letter-spacing:-0.01em;}.cls-8{letter-spacing:-0.02em;}.cls-9{letter-spacing:-0.01em;}.cls-10{letter-spacing:0em;}</style><linearGradient id="linear-gradient" x1="-67.61" y1="-30.95" x2="375.81" y2="733.49" gradientUnits="userSpaceOnUse"><stop offset="0" stop-color="#99f"/><stop offset="0.13" stop-color="#9397fb"/><stop offset="0.3" stop-color="#8392f0"/><stop offset="0.49" stop-color="#6889df"/><stop offset="0.7" stop-color="#437cc6"/><stop offset="0.92" stop-color="#146da6"/><stop offset="1" stop-color="#069"/></linearGradient></defs><g id="Layer_2" data-name="Layer 2"><g id="Layer_1-2" data-name="Layer 1"><line class="cls-1" x1="678.93" y1="181.29" x2="678" y2="180.76"/><polygon class="cls-2" points="74.36 152.82 88.04 144.92 114.45 129.67 145.93 111.5 146.73 111.03 146.73 62.12 88.04 28.25 39.12 0 39.12 49.83 88.04 78.08 103.58 87.04 88.04 96.01 72.09 105.22 39.12 86.19 39.12 124.25 32 128.36 0 146.84 0 362.04 39.12 339.45 88.04 311.21 146.73 277.32 146.73 228.42 88.04 262.31 39.12 290.54 39.12 251.41 88.04 223.17 88.04 184.05 39.12 212.28 39.12 173.15 74.36 152.82"/><line class="cls-1" x1="678.93" y1="181.56" x2="678.93" y2="180.49"/><text class="cls-3" transform="translate(213.28 225.5)">E<tspan class="cls-4" x="85.58" y="0">d</tspan><tspan class="cls-5" x="173.18" y="0">u</tspan><tspan class="cls-6" x="253.97" y="0">C</tspan><tspan class="cls-7" x="349.8" y="0">a</tspan><tspan class="cls-8" x="426.03" y="0">l</tspan><tspan class="cls-9" x="463.73" y="0">m</tspan><tspan class="cls-10" x="587.21" y="0">a</tspan></text></g></g></svg>